<svg xmlns="http://www.w3.org/2000/svg" width="1141.031" height="1539.656" preserveAspectRatio="none meet" viewBox="0 0 1141.031 1539.656">
  <defs>
    <!-- <style>
      .cls-1 {
        fill-rule: evenodd;
      }
    </style> -->
<filter id="f1">
    <!-- 投影偏移 -->
    <feOffset dx="0" dy="0"/>
    <!-- 投影模糊 -->
    <feGaussianBlur stdDeviation="4" result="offset-blur"/>
    <!-- 反转投影使其变成内投影 -->
    <feComposite operator="out" in="SourceGraphic" in2="offset-blur" result="inverse"/>
    <!-- 内投影附加黑色 -->
    <feFlood flood-color="black" flood-opacity=".9" result="color"/>
    <feComposite operator="in" in="color" in2="inverse" result="shadow"/>
    <!-- 把内投影显示在图像上 -->
    <feComposite operator="over" in="shadow" in2="SourceGraphic"/> 
  </filter>
  </defs>
  <path id="形状_316_1" filter="url(#f1)" data-name="形状 316 1" fill="white" class="cls-1" d="M1142,1599.05H121.735c-21.558,0-59.826,5.02-68.9-8.1-9.4-13.6-8.049-39.99-12.158-57.73-12.407-53.55-14.323-110.9-24.316-171.15C-18.352,1152.74,3.5,920.811,125.788,824.294c52.907-41.757,124.38-60.016,181.358-98.237,24.822-16.651,29.834-50.874,45.593-76.97,8.68-14.375,28.146-27.024,34.447-41.523,6.159-14.17-6.931-28.68-10.131-38.484q-4.558-16.709-9.119-33.421c-4.6-8.809-14.383-12.893-20.263-20.255l-23.3-44.561c-6.464-18.327-7.137-56.414-3.04-78.995,1.793-9.879,6.753-22.439,4.053-35.447-3.467-16.7-15.387-42.4-12.158-62.79l15.2-43.549q2.533-13.671,5.066-27.344c17.433-50.249,59.416-95.7,106.383-116.467L491.543,91.06c24.224-7.589,71.908-35.387,102.331-29.37,13.881,2.746,56.592,17.926,65.856,26.332l17.224,28.357c10.537,7.2,26.814,6.133,36.474,13.166,29.379,21.388,67.554,102.462,72.948,149.887,2.551,22.429-30.025,80.161-35.461,105.327q0.507,11.644,1.014,23.293c2.123,23.413-.473,49.508-6.079,67.854-5.685,18.6-14.971,38.369-20.264,55.7-9.257,30.315-8.948,57.036-23.3,80.007-11.229,17.971-41.771,38.579-29.382,68.868,20.915,51.131,68.862,64.2,118.541,86.084,58.918,25.955,113.874,58.329,161.1,96.211,40.68,32.635,46.923,95.229,73.963,141.782,37.77,65.04,61.31,134.69,89.16,211.67q12.66,35.955,25.33,71.91Q1141.485,1443.57,1142,1599.05Z" transform="translate(-0.969 -60.344)"/>
</svg>
