<!-- Exported by Character Map UWP -->
<svg height="100%" viewBox="0 1 1024 1023" width="100%" xmlns="http://www.w3.org/2000/svg" xmlns:xlink="http://www.w3.org/1999/xlink">
  <path d="M1023.5,97C1023.5,110.667 1021.08,122.917 1016.25,133.75C1011.42,144.583 1004.33,154.833 995,164.5L287,910C283.333,914 279.167,917.583 274.5,920.75C269.833,923.917 265,926.833 260,929.5L163,978.5C154.333,982.833 144.833,985 134.5,985C120.5,985 107.833,980.833 96.5,972.5L54.5,1014.5C48.1667,1020.83 40.6667,1024 32,1024C23.3333,1024 15.8333,1020.83 9.5,1014.5C3.16667,1008.17 0,1000.67 0,992C0,983.333 3.16667,975.833 9.5,969.5L51.5,927.5C47.1667,922.167 44,916.167 42,909.5C40,902.833 39,896.167 39,889.5C39,879.167 41.1667,869.667 45.5,861L94.5,763.5C99.1667,753.5 105.667,744.667 114,737L860,28.5C869.667,19.5 879.917,12.6667 890.75,8C901.583,3.33337 913.667,1.00006 927,1C940.333,1.00006 952.833,3.50006 964.5,8.5C976.167,13.5001 986.333,20.3334 995,29C1003.67,37.6667 1010.58,47.8334 1015.75,59.5C1020.92,71.1667 1023.5,83.6667 1023.5,97ZM959.5,97C959.5,88.0001 956.417,80.4167 950.25,74.25C944.083,68.0834 936.5,65 927.5,65C922.5,65 917.75,66.0834 913.25,68.25C908.75,70.4167 904.583,73.1667 900.75,76.5C896.917,79.8334 893.25,83.4167 889.75,87.25C886.25,91.0834 882.833,94.6667 879.5,98L926,145C929,142 932.417,138.667 936.25,135C940.083,131.333 943.75,127.5 947.25,123.5C950.75,119.5 953.667,115.333 956,111C958.333,106.667 959.5,102 959.5,97ZM882,191L833,142L158,783.5C157,784.5 155.833,785.917 154.5,787.75C153.167,789.583 152.167,791.167 151.5,792.5L103,889.5L134.5,921L231.5,872.5C232.833,871.833 234.417,870.833 236.25,869.5C238.083,868.167 239.5,867 240.5,866ZM864,960C872.667,960 880.167,963.167 886.5,969.5C892.833,975.833 896,983.333 896,992C896,1000.67 892.833,1008.17 886.5,1014.5C880.167,1020.83 872.667,1024 864,1024L352,1024C343.333,1024 335.833,1020.83 329.5,1014.5C323.167,1008.17 320,1000.67 320,992C320,983.333 323.167,975.833 329.5,969.5C335.833,963.167 343.333,960 352,960Z" fill="#FFFFFF" fill-opacity="1">
  </path>
</svg>