<!-- Exported by Character Map UWP -->
<svg height="100%" viewBox="0 64 960 896" width="100%" xmlns="http://www.w3.org/2000/svg" xmlns:xlink="http://www.w3.org/1999/xlink">
  <path d="M960,288L960,864C960,877 957.5,889.333 952.5,901C947.5,912.667 940.583,922.917 931.75,931.75C922.917,940.583 912.667,947.5 901,952.5C889.333,957.5 877,960 864,960L96,960C83,960 70.6667,957.5 59,952.5C47.3333,947.5 37.0833,940.583 28.25,931.75C19.4167,922.917 12.5,912.667 7.5,901C2.5,889.333 0,877 0,864L0,288C0,275 2.5,262.667 7.5,251C12.5,239.333 19.4167,229.083 28.25,220.25C37.0833,211.417 47.3333,204.5 59,199.5C70.6667,194.5 83,192 96,192L128,192L128,160C128,147 130.5,134.667 135.5,123C140.5,111.333 147.417,101.083 156.25,92.25C165.083,83.4167 175.333,76.5001 187,71.5C198.667,66.5001 211,64.0001 224,64L352,64C376.333,64.0001 400,69.1667 423,79.5C446,89.8334 465,104.667 480,124C495,104.667 514,89.8334 537,79.5C560,69.1667 583.667,64.0001 608,64L736,64C749,64.0001 761.333,66.5001 773,71.5C784.667,76.5001 794.917,83.4167 803.75,92.25C812.583,101.083 819.5,111.333 824.5,123C829.5,134.667 832,147 832,160L832,192L864,192C877,192 889.333,194.5 901,199.5C912.667,204.5 922.917,211.417 931.75,220.25C940.583,229.083 947.5,239.333 952.5,251C957.5,262.667 960,275 960,288ZM192,736C192,744.667 195.167,752.167 201.5,758.5C207.833,764.833 215.333,768 224,768L352,768C369,768 385.583,769.75 401.75,773.25C417.917,776.75 433.333,782.667 448,791L448,224C448,209.667 445.75,196.667 441.25,185C436.75,173.333 430.25,163.25 421.75,154.75C413.25,146.25 403.083,139.667 391.25,135C379.417,130.333 366.333,128 352,128L224,128C215.333,128 207.833,131.167 201.5,137.5C195.167,143.833 192,151.333 192,160ZM608,128C593.333,128 580.167,130.333 568.5,135C556.833,139.667 546.75,146.167 538.25,154.5C529.75,162.833 523.25,172.917 518.75,184.75C514.25,196.583 512,209.667 512,224L512,791C526.667,782.667 542.083,776.75 558.25,773.25C574.417,769.75 591,768 608,768L736,768C744.667,768 752.167,764.833 758.5,758.5C764.833,752.167 768,744.667 768,736L768,160C768,151.333 764.833,143.833 758.5,137.5C752.167,131.167 744.667,128 736,128ZM896,288C896,280.667 894.583,274.917 891.75,270.75C888.917,266.583 885.25,263.417 880.75,261.25C876.25,259.083 871.25,257.667 865.75,257C860.25,256.333 854.667,256 849,256L832,256L832,736C832,749 829.5,761.333 824.5,773C819.5,784.667 812.583,794.917 803.75,803.75C794.917,812.583 784.667,819.5 773,824.5C761.333,829.5 749,832 736,832L608,832C599.667,832 590.667,832.833 581,834.5C571.333,836.167 561.833,838.833 552.5,842.5C543.167,846.167 534.667,850.833 527,856.5C519.333,862.167 513.5,869 509.5,877C507.833,880.333 506,883 504,885C500.333,888.667 496.75,891.417 493.25,893.25C489.75,895.083 485.333,896 480,896C474.667,896 470.25,895.083 466.75,893.25C463.25,891.417 459.667,888.667 456,885C454,883 452.167,880.333 450.5,877C446.5,869 440.667,862.167 433,856.5C425.333,850.833 416.833,846.167 407.5,842.5C398.167,838.833 388.667,836.167 379,834.5C369.333,832.833 360.333,832 352,832L224,832C211,832 198.667,829.5 187,824.5C175.333,819.5 165.083,812.583 156.25,803.75C147.417,794.917 140.5,784.667 135.5,773C130.5,761.333 128,749 128,736L128,256L96,256C87.3333,256 79.8333,259.167 73.5,265.5C67.1667,271.833 64,279.333 64,288L64,864C64,872.667 67.1667,880.167 73.5,886.5C79.8333,892.833 87.3333,896 96,896L864,896C872.667,896 880.167,892.833 886.5,886.5C892.833,880.167 896,872.667 896,864Z" fill="#FFFFFF" fill-opacity="1">
  </path>
</svg>